<svg xmlns="http://www.w3.org/2000/svg" viewBox="0 0 500 560" width="500" height="560">
  <title>Chest radiograph</title>
  <!-- A portable AP semi-erect chest film, a little rotated. Patient right is viewer left. Drawn, not photographed. -->
  <defs>
    <filter id="ccx-b2" x="-20%" y="-20%" width="140%" height="140%"><feGaussianBlur stdDeviation="2"/></filter>
    <filter id="ccx-b4" x="-20%" y="-20%" width="140%" height="140%"><feGaussianBlur stdDeviation="4"/></filter>
    <filter id="ccx-b9" x="-30%" y="-30%" width="160%" height="160%"><feGaussianBlur stdDeviation="9"/></filter>
    <filter id="ccx-b16" x="-40%" y="-40%" width="180%" height="180%"><feGaussianBlur stdDeviation="16"/></filter>
    <filter id="ccx-grain" x="0" y="0" width="100%" height="100%">
      <feTurbulence type="fractalNoise" baseFrequency=".9" numOctaves="2" seed="5"/>
      <feColorMatrix type="matrix" values="0 0 0 0 1  0 0 0 0 1  0 0 0 0 1  0 0 0 .10 0"/>
    </filter>
    <radialGradient id="ccx-vig" cx=".5" cy=".48" r=".64"><stop offset=".62" stop-color="#000" stop-opacity="0"/><stop offset="1" stop-color="#000" stop-opacity=".8"/></radialGradient>
    <clipPath id="ccx-lungs"><path d="M222 86 Q176 70 132 110 Q78 180 66 300 Q58 392 64 452 Q130 414 214 430 Q222 300 222 86 Z M286 82 Q332 68 376 108 Q428 178 438 300 Q444 392 440 458 Q380 424 322 444 Q300 300 286 82 Z"/></clipPath>
  </defs>
  <rect width="500" height="560" fill="#050505"/>
  <!-- soft tissues of the chest wall, shoulders and neck -->
  <path d="M176 0 H330 L336 44 Q420 56 470 96 L500 130 V560 H0 V130 L30 96 Q84 56 170 44 Z" fill="#4a4a4a" filter="url(#ccx-b9)"/>
  <!-- abdomen below the diaphragm -->
  <path d="M40 470 Q130 400 222 432 Q260 448 300 446 Q384 414 462 474 V560 H40 Z" fill="#9a9a9a" filter="url(#ccx-b4)"/>
  <!-- lungs -->
  <path d="M222 86 Q176 70 132 110 Q78 180 66 300 Q58 392 64 452 Q130 414 214 430 Q222 300 222 86 Z" fill="#0d0d0d" filter="url(#ccx-b4)"/>
  <path d="M286 82 Q332 68 376 108 Q428 178 438 300 Q444 392 440 458 Q380 424 322 444 Q300 300 286 82 Z" fill="#0d0d0d" filter="url(#ccx-b4)"/>
  <!-- lung markings, fading outwards -->
  <g clip-path="url(#ccx-lungs)"><g fill="none" stroke="#8c8c8c" stroke-linecap="round" opacity=".42" filter="url(#ccx-b2)"><path d="M214 262 Q204 214 181 170" stroke-width="3.4"/><path d="M214 262 Q187 224 150 194" stroke-width="2.7"/><path d="M214 262 Q176 230 130 209" stroke-width="2.0"/><path d="M214 262 Q170 242 122 235" stroke-width="3.4"/><path d="M214 262 Q159 261 105 276" stroke-width="2.7"/><path d="M214 262 Q172 272 134 292" stroke-width="2.0"/><path d="M214 262 Q167 291 129 333" stroke-width="3.4"/><path d="M214 262 Q194 292 183 327" stroke-width="2.7"/><path d="M214 262 Q203 320 207 380" stroke-width="2.0"/><path d="M300 262 Q312 213 337 168" stroke-width="3.4"/><path d="M300 262 Q316 231 341 204" stroke-width="2.7"/><path d="M300 262 Q328 239 362 224" stroke-width="2.0"/><path d="M300 262 Q337 245 379 239" stroke-width="3.4"/><path d="M300 262 Q346 257 393 264" stroke-width="2.7"/><path d="M300 262 Q354 278 402 308" stroke-width="2.0"/><path d="M300 262 Q341 292 373 333" stroke-width="3.4"/><path d="M300 262 Q330 304 347 354" stroke-width="2.7"/><path d="M300 262 Q312 302 312 345" stroke-width="2.0"/></g></g>
  <!-- mediastinum, heart and aortic knuckle -->
  <path d="M232 40 Q230 150 228 220 Q222 250 224 300 Q224 380 226 440 L318 448 Q344 426 340 382 Q332 314 304 270 Q308 238 296 208 Q308 182 290 168 Q284 100 286 40 Z" fill="#a8a8a8" filter="url(#ccx-b9)"/>
  <path d="M242 262 Q240 380 246 440 L308 444 Q330 416 324 370 Q314 310 294 280 Z" fill="#b8b8b8" opacity=".6" filter="url(#ccx-b9)"/>
  <!-- spine and trachea -->
  <path d="M254 0 V560" stroke="#c4c4c4" stroke-width="34" opacity=".28" filter="url(#ccx-b4)"/>
  <g stroke="#1a1a1a" stroke-width="3" opacity=".16" filter="url(#ccx-b2)"><path d="M240 24 H268"/><path d="M240 54 H268"/><path d="M240 84 H268"/><path d="M240 114 H268"/><path d="M240 144 H268"/><path d="M240 174 H268"/><path d="M240 204 H268"/><path d="M240 234 H268"/><path d="M240 264 H268"/><path d="M240 294 H268"/><path d="M240 324 H268"/><path d="M240 354 H268"/><path d="M240 384 H268"/><path d="M240 414 H268"/><path d="M240 444 H268"/><path d="M240 474 H268"/><path d="M240 504 H268"/><path d="M240 534 H268"/></g>
  <path d="M260 0 Q262 100 258 178" stroke="#161616" stroke-width="18" opacity=".32" stroke-linecap="round" filter="url(#ccx-b9)"/>
  <!-- ribs -->
  <g fill="none" stroke="#d2d2d2" stroke-width="9" stroke-linecap="round" opacity=".26" filter="url(#ccx-b2)"><path d="M238 104 Q156 70 88 118" /><path d="M270 100 Q352 66 420 114"/><path d="M238 142 Q151 108 79 159" /><path d="M270 138 Q357 104 429 155"/><path d="M238 180 Q146 146 70 200" /><path d="M270 176 Q362 142 438 196"/><path d="M238 218 Q141 184 61 241" /><path d="M270 214 Q367 180 447 237"/><path d="M238 256 Q136 222 52 282" /><path d="M270 252 Q372 218 456 278"/><path d="M238 294 Q131 260 43 323" /><path d="M270 290 Q377 256 465 319"/><path d="M238 332 Q131 298 43 364" /><path d="M270 328 Q377 294 465 360"/><path d="M238 370 Q131 336 43 405" /><path d="M270 366 Q377 332 465 401"/><path d="M238 408 Q131 374 43 446" /><path d="M270 404 Q377 370 465 442"/></g>
  <g fill="none" stroke="#c8c8c8" stroke-width="8" stroke-linecap="round" opacity=".14" filter="url(#ccx-b2)"><path d="M96 170 Q150 200 206 232"/><path d="M412 166 Q358 196 304 228"/><path d="M94 214 Q150 244 206 276"/><path d="M414 210 Q358 240 304 272"/><path d="M92 258 Q150 288 206 320"/><path d="M416 254 Q358 284 304 316"/><path d="M90 302 Q150 332 206 364"/><path d="M418 298 Q358 328 304 360"/><path d="M88 346 Q150 376 206 408"/><path d="M420 342 Q358 372 304 404"/><path d="M86 390 Q150 420 206 452"/><path d="M422 386 Q358 416 304 448"/></g>
  <!-- clavicles: unequal about the midline, as on a rotated film -->
  <g fill="none" stroke="#dcdcdc" stroke-linecap="round" opacity=".55" filter="url(#ccx-b2)">
    <path d="M214 92 Q150 74 60 84" stroke-width="13"/>
    <path d="M292 84 Q360 70 452 92" stroke-width="13"/>
  </g>
  <!-- shoulder blades and upper arms -->
  <g fill="none" stroke="#bdbdbd" stroke-linecap="round" opacity=".2" filter="url(#ccx-b4)">
    <path d="M70 100 Q84 200 124 290" stroke-width="12"/><path d="M438 104 Q424 204 386 292" stroke-width="12"/>
    <path d="M24 120 Q14 260 20 400" stroke-width="26"/><path d="M480 124 Q490 262 484 400" stroke-width="26"/>
  </g>
  <!-- monitoring dots and their leads -->
  <g filter="url(#ccx-b2)">
    <g fill="none" stroke="#e6e6e6" stroke-width="2" opacity=".7"><path d="M118 112 Q60 60 0 40"/><path d="M392 116 Q450 70 500 46"/><path d="M398 398 Q460 430 500 470"/></g>
    <g fill="#f4f4f4"><circle cx="118" cy="112" r="6"/><circle cx="392" cy="116" r="6"/><circle cx="398" cy="398" r="6"/></g>
  </g>
  <rect width="500" height="560" filter="url(#ccx-grain)" opacity=".8"/>
  <rect width="500" height="560" fill="url(#ccx-vig)"/>
  <!-- side marker -->
  <text x="452" y="40" font-family="Arial, Helvetica, sans-serif" font-size="26" font-weight="700" fill="#ededed">L</text>
</svg>
