<?xml version="1.0" encoding="UTF-8"?>
<svg xmlns="http://www.w3.org/2000/svg" viewBox="0 0 600 600" width="600" height="600">
<!-- Anterior neck and upper chest dissection: heart, great vessels, right internal jugular column -->
<defs>
<radialGradient id="fc-vig" cx="50%" cy="48%" r="75%">
  <stop offset="0.62" stop-color="#f4ecdf" stop-opacity="0"/>
  <stop offset="1" stop-color="#b89f82" stop-opacity="0.35"/>
</radialGradient>
<filter id="fc-grain" x="0" y="0" width="100%" height="100%">
  <feTurbulence type="fractalNoise" baseFrequency="0.85" numOctaves="2" seed="11" result="n"/>
  <feColorMatrix in="n" type="matrix" values="0 0 0 0 0.45  0 0 0 0 0.36  0 0 0 0 0.26  0 0 0 0.10 0" result="g"/>
  <feComposite in="g" in2="SourceGraphic" operator="in"/>
</filter><filter id="fc-skintex" x="-5%" y="-5%" width="110%" height="110%" color-interpolation-filters="sRGB">
  <feTurbulence type="fractalNoise" baseFrequency="0.9" numOctaves="3" seed="4" result="n"/>
  <feColorMatrix in="n" type="matrix" values="0 0 0 0 0.36  0 0 0 0 0.28  0 0 0 0 0.27  0 0 0 0.3 -0.08" result="t"/>
  <feComposite in="t" in2="SourceGraphic" operator="in" result="tc"/>
  <feMerge><feMergeNode in="SourceGraphic"/><feMergeNode in="tc"/></feMerge>
</filter><filter id="fc-mustex" x="-5%" y="-5%" width="110%" height="110%" color-interpolation-filters="sRGB">
  <feTurbulence type="fractalNoise" baseFrequency="0.55" numOctaves="3" seed="9" result="n"/>
  <feColorMatrix in="n" type="matrix" values="0 0 0 0 0.25  0 0 0 0 0.06  0 0 0 0 0.05  0 0 0 0.55 -0.12" result="t"/>
  <feComposite in="t" in2="SourceGraphic" operator="in" result="tc"/>
  <feMerge><feMergeNode in="SourceGraphic"/><feMergeNode in="tc"/></feMerge>
</filter><filter id="fc-lungtex" x="-5%" y="-5%" width="110%" height="110%" color-interpolation-filters="sRGB">
  <feTurbulence type="fractalNoise" baseFrequency="0.12" numOctaves="4" seed="21" result="n"/>
  <feColorMatrix in="n" type="matrix" values="0 0 0 0 0.35  0 0 0 0 0.22  0 0 0 0 0.25  0 0 0 0.9 -0.3" result="t"/>
  <feComposite in="t" in2="SourceGraphic" operator="in" result="tc"/>
  <feMerge><feMergeNode in="SourceGraphic"/><feMergeNode in="tc"/></feMerge>
</filter><filter id="fc-glandtex" x="-5%" y="-5%" width="110%" height="110%" color-interpolation-filters="sRGB">
  <feTurbulence type="fractalNoise" baseFrequency="0.35" numOctaves="3" seed="5" result="n"/>
  <feColorMatrix in="n" type="matrix" values="0 0 0 0 0.35  0 0 0 0 0.1  0 0 0 0 0.08  0 0 0 0.8 -0.25" result="t"/>
  <feComposite in="t" in2="SourceGraphic" operator="in" result="tc"/>
  <feMerge><feMergeNode in="SourceGraphic"/><feMergeNode in="tc"/></feMerge>
</filter><filter id="fc-bonetex" x="-5%" y="-5%" width="110%" height="110%" color-interpolation-filters="sRGB">
  <feTurbulence type="fractalNoise" baseFrequency="1.4" numOctaves="2" seed="2" result="n"/>
  <feColorMatrix in="n" type="matrix" values="0 0 0 0 0.55  0 0 0 0 0.45  0 0 0 0 0.3  0 0 0 0.5 -0.1" result="t"/>
  <feComposite in="t" in2="SourceGraphic" operator="in" result="tc"/>
  <feMerge><feMergeNode in="SourceGraphic"/><feMergeNode in="tc"/></feMerge>
</filter><filter id="fc-blur6" x="-30%" y="-30%" width="160%" height="160%"><feGaussianBlur stdDeviation="6"/></filter><filter id="fc-blur2" x="-30%" y="-30%" width="160%" height="160%"><feGaussianBlur stdDeviation="2"/></filter><filter id="fc-blur1" x="-30%" y="-30%" width="160%" height="160%"><feGaussianBlur stdDeviation="0.8"/></filter><filter id="fc-shd" x="-20%" y="-20%" width="140%" height="140%">
  <feGaussianBlur in="SourceAlpha" stdDeviation="3"/>
  <feOffset dx="1" dy="3" result="o"/>
  <feColorMatrix in="o" type="matrix" values="0 0 0 0 0.16  0 0 0 0 0.11  0 0 0 0 0.08  0 0 0 0.45 0" result="s"/>
  <feMerge><feMergeNode in="s"/><feMergeNode in="SourceGraphic"/></feMerge>
</filter><pattern id="fc-fibV" width="4.5" height="4.5" patternUnits="userSpaceOnUse" patternTransform="rotate(90)"><path d="M0 2.25 H4.5" stroke="#4d1a16" stroke-width="0.7" stroke-opacity="0.45"/></pattern><pattern id="fc-fibScmR" width="4.5" height="4.5" patternUnits="userSpaceOnUse" patternTransform="rotate(74)"><path d="M0 2.25 H4.5" stroke="#4d1a16" stroke-width="0.7" stroke-opacity="0.45"/></pattern><pattern id="fc-fibScmL" width="4.5" height="4.5" patternUnits="userSpaceOnUse" patternTransform="rotate(106)"><path d="M0 2.25 H4.5" stroke="#4d1a16" stroke-width="0.7" stroke-opacity="0.45"/></pattern><pattern id="fc-fibIc" width="3.6" height="3.6" patternUnits="userSpaceOnUse" patternTransform="rotate(35)"><path d="M0 1.8 H3.6" stroke="#4d1a16" stroke-width="0.7" stroke-opacity="0.45"/></pattern><pattern id="fc-fibIc2" width="3.6" height="3.6" patternUnits="userSpaceOnUse" patternTransform="rotate(145)"><path d="M0 1.8 H3.6" stroke="#4d1a16" stroke-width="0.7" stroke-opacity="0.45"/></pattern><pattern id="fc-fibOmo" width="3.2" height="3.2" patternUnits="userSpaceOnUse" patternTransform="rotate(-38)"><path d="M0 1.6 H3.2" stroke="#4d1a16" stroke-width="0.7" stroke-opacity="0.45"/></pattern><pattern id="fc-fibHeart" width="5" height="5" patternUnits="userSpaceOnUse" patternTransform="rotate(60)"><path d="M0 2.5 H5" stroke="#5a1c17" stroke-width="0.7" stroke-opacity="0.25"/></pattern>
<linearGradient id="fc-skin" x1="0" y1="0" x2="1" y2="0">
  <stop offset="0" stop-color="#a99a93"/><stop offset="0.18" stop-color="#c9ab97"/><stop offset="0.38" stop-color="#dcc6b4"/>
  <stop offset="0.66" stop-color="#d9c1ae"/><stop offset="0.86" stop-color="#c3a894"/><stop offset="1" stop-color="#9c9296"/>
</linearGradient>
<linearGradient id="fc-deep" x1="0" y1="0" x2="0" y2="1">
  <stop offset="0" stop-color="#6d2c26"/><stop offset="1" stop-color="#4f1f1b"/>
</linearGradient>
<linearGradient id="fc-muscleR" x1="0" y1="0" x2="1" y2="0">
  <stop offset="0" stop-color="#7f322b"/><stop offset="0.45" stop-color="#b04f45"/><stop offset="0.7" stop-color="#c0655a"/><stop offset="1" stop-color="#8a372f"/>
</linearGradient>
<linearGradient id="fc-muscleL" x1="1" y1="0" x2="0" y2="0">
  <stop offset="0" stop-color="#7f322b"/><stop offset="0.45" stop-color="#b04f45"/><stop offset="0.7" stop-color="#c0655a"/><stop offset="1" stop-color="#8a372f"/>
</linearGradient>
<linearGradient id="fc-icm" x1="0" y1="0" x2="0" y2="1">
  <stop offset="0" stop-color="#8e3a32"/><stop offset="1" stop-color="#6e2a24"/>
</linearGradient>
<linearGradient id="fc-bone" x1="0" y1="0" x2="0" y2="1">
  <stop offset="0" stop-color="#f7f1e2"/><stop offset="0.5" stop-color="#efe6d2"/><stop offset="1" stop-color="#cdbf9f"/>
</linearGradient>
<linearGradient id="fc-cart" x1="0" y1="0" x2="0" y2="1">
  <stop offset="0" stop-color="#e4e3d8"/><stop offset="0.5" stop-color="#cfd1c6"/><stop offset="1" stop-color="#9ea39b"/>
</linearGradient>
<linearGradient id="fc-trach" x1="0" y1="0" x2="1" y2="0">
  <stop offset="0" stop-color="#b8a597"/><stop offset="0.3" stop-color="#ebe3d4"/><stop offset="0.6" stop-color="#f3ede1"/><stop offset="1" stop-color="#a99585"/>
</linearGradient>
<linearGradient id="fc-gland" x1="0" y1="0" x2="1" y2="1">
  <stop offset="0" stop-color="#b8605a"/><stop offset="0.5" stop-color="#9c4a43"/><stop offset="1" stop-color="#6f2d28"/>
</linearGradient>
<radialGradient id="fc-lung" cx="0.5" cy="0.35" r="0.7">
  <stop offset="0" stop-color="#d7b3ad"/><stop offset="0.7" stop-color="#b98f8b"/><stop offset="1" stop-color="#8c6563"/>
</radialGradient>
<radialGradient id="fc-pcav" cx="0.5" cy="0.5" r="0.6">
  <stop offset="0" stop-color="#5a1d19"/><stop offset="1" stop-color="#3b1210"/>
</radialGradient>
<radialGradient id="fc-heart" cx="0.42" cy="0.38" r="0.7">
  <stop offset="0" stop-color="#c46a5f"/><stop offset="0.45" stop-color="#a2463d"/><stop offset="0.85" stop-color="#7a2f28"/><stop offset="1" stop-color="#5e221d"/>
</radialGradient>
<radialGradient id="fc-ra" cx="0.4" cy="0.35" r="0.8">
  <stop offset="0" stop-color="#9a4b55"/><stop offset="1" stop-color="#5e2a36"/>
</radialGradient>
<linearGradient id="fc-cut" x1="0" y1="0" x2="1" y2="1">
  <stop offset="0" stop-color="#cf7a6d"/><stop offset="1" stop-color="#a44c42"/>
</linearGradient>
<linearGradient id="fc-blood" x1="0" y1="0" x2="1" y2="0">
  <stop offset="0" stop-color="#1f2b4a"/><stop offset="0.35" stop-color="#34497a"/><stop offset="0.55" stop-color="#4d679c"/><stop offset="1" stop-color="#1c2744"/>
</linearGradient>
<linearGradient id="fc-flat" x1="0" y1="0" x2="1" y2="0">
  <stop offset="0" stop-color="#8d93a8"/><stop offset="0.5" stop-color="#b9bccb"/><stop offset="1" stop-color="#7e869e"/>
</linearGradient>
<linearGradient id="fc-fat" x1="0" y1="0" x2="0" y2="1">
  <stop offset="0" stop-color="#efdcb0"/><stop offset="1" stop-color="#d7bd86"/>
</linearGradient>
<linearGradient id="fc-steel" x1="0" y1="0" x2="1" y2="1">
  <stop offset="0" stop-color="#f4f6f8"/><stop offset="0.4" stop-color="#a9b0b8"/><stop offset="0.6" stop-color="#e3e7ea"/><stop offset="1" stop-color="#6c747c"/>
</linearGradient>
<clipPath id="fc-win"><path d="M150,40 C148,110 150,170 138,212 C125,238 108,250 105,275 L120,600 L480,600 L495,275 C492,250 475,238 462,212 C450,170 452,110 450,40 C380,28 220,28 150,40 Z"/></clipPath><clipPath id="fc-rw"><path d="M222,318 L438,318 C448,400 450,480 444,600 L222,600 C214,480 214,400 222,318 Z"/></clipPath><radialGradient id="fc-cav" cx="0.45" cy="0.4" r="0.7"><stop offset="0" stop-color="#6a1a16"/><stop offset="0.7" stop-color="#3f0f0d"/><stop offset="1" stop-color="#2a0908"/></radialGradient><clipPath id="fc-ijv"><path d="M205,40 C208,110 212,180 216,236 C218,256 222,270 232,278 L256,276 C250,262 246,250 243,236 C238,180 232,110 227,40 Z"/></clipPath>
</defs>
<rect width="600" height="600" fill="#f4ecdf"/>
<rect width="600" height="600" fill="#f4ecdf" filter="url(#fc-grain)"/>
<path d="M105,0 C108,90 110,150 95,190 C70,220 30,232 0,240 L0,600 L600,600 L600,240 C570,232 530,220 505,190 C490,150 492,90 495,0 Z" fill="#000" opacity="0"/>
<g clip-path="url(#fc-win)"><rect x="100" y="20" width="400" height="600" fill="url(#fc-deep)"/><path d="M140,30 L460,30 L470,262 L130,262 Z" fill="#8a3d34" filter="url(#fc-mustex)"/><path d="M140,30 L460,30 L470,262 L130,262 Z" fill="url(#fc-fibV)"/><path d="M150,120 C160,170 172,220 185,262 L100,262 C120,220 138,170 150,120 Z" fill="url(#fc-fat)" filter="url(#fc-glandtex)" opacity="0.9"/><path d="M162.0,150 C152.0,190 135,225.0 112,250.0" fill="none" stroke="#3a2a20" stroke-width="5.2" opacity="0.8"/><path d="M162.0,150 C152.0,190 135,225.0 112,250.0" fill="none" stroke="#efe2b8" stroke-width="3.6"/><path d="M164.7,159 C153.8,199 135,230.4 112,252.7" fill="none" stroke="#3a2a20" stroke-width="5.2" opacity="0.8"/><path d="M164.7,159 C153.8,199 135,230.4 112,252.7" fill="none" stroke="#efe2b8" stroke-width="3.6"/><path d="M167.4,168 C155.6,208 135,235.8 112,255.4" fill="none" stroke="#3a2a20" stroke-width="5.2" opacity="0.8"/><path d="M167.4,168 C155.6,208 135,235.8 112,255.4" fill="none" stroke="#efe2b8" stroke-width="3.6"/><ellipse cx="160" cy="200" rx="7" ry="5" fill="#c79a82" stroke="#3a2a20" stroke-width="0.8"/><path d="M450,120 C440,170 428,220 415,262 L500,262 C480,220 462,170 450,120 Z" fill="url(#fc-fat)" filter="url(#fc-glandtex)" opacity="0.9"/><path d="M438.0,150 C448.0,190 465,225.0 488,250.0" fill="none" stroke="#3a2a20" stroke-width="5.2" opacity="0.8"/><path d="M438.0,150 C448.0,190 465,225.0 488,250.0" fill="none" stroke="#efe2b8" stroke-width="3.6"/><path d="M435.3,159 C446.2,199 465,230.4 488,252.7" fill="none" stroke="#3a2a20" stroke-width="5.2" opacity="0.8"/><path d="M435.3,159 C446.2,199 465,230.4 488,252.7" fill="none" stroke="#efe2b8" stroke-width="3.6"/><path d="M432.6,168 C444.4,208 465,235.8 488,255.4" fill="none" stroke="#3a2a20" stroke-width="5.2" opacity="0.8"/><path d="M432.6,168 C444.4,208 465,235.8 488,255.4" fill="none" stroke="#efe2b8" stroke-width="3.6"/><ellipse cx="440" cy="200" rx="7" ry="5" fill="#c79a82" stroke="#3a2a20" stroke-width="0.8"/><path d="M100,262 L500,262 L500,600 L100,600 Z" fill="url(#fc-icm)" filter="url(#fc-mustex)"/><path d="M100,262 L300,262 L300,600 L100,600 Z" fill="url(#fc-fibIc)"/><path d="M300,262 L500,262 L500,600 L300,600 Z" fill="url(#fc-fibIc2)"/><path d="M100,272 Q138.0,284.0 176,302 L176,318 Q138.0,300.0 100,288 Z" fill="url(#fc-bone)" stroke="#3a2a20" stroke-width="1" filter="url(#fc-bonetex)"/><path d="M176,302 Q199.0,305.0 222,314 L222,330 Q199.0,321.0 176,318 Z" fill="url(#fc-cart)" stroke="#3a2a20" stroke-width="1" /><path d="M176,302 L176,318" stroke="#3a2a20" stroke-width="0.9" opacity="0.7"/><ellipse cx="222" cy="322" rx="2.6" ry="8" fill="#dfe6e3" stroke="#3a2a20" stroke-width="0.9"/><path d="M500,272 Q492.0,284.0 484,302 L484,318 Q492.0,300.0 500,288 Z" fill="url(#fc-bone)" stroke="#3a2a20" stroke-width="1" filter="url(#fc-bonetex)"/><path d="M484,302 Q461.0,305.0 438,314 L438,330 Q461.0,321.0 484,318 Z" fill="url(#fc-cart)" stroke="#3a2a20" stroke-width="1" /><path d="M484,302 L484,318" stroke="#3a2a20" stroke-width="0.9" opacity="0.7"/><ellipse cx="438" cy="322" rx="2.6" ry="8" fill="#dfe6e3" stroke="#3a2a20" stroke-width="0.9"/><path d="M100,320 Q138.0,332.0 176,350 L176,366 Q138.0,348.0 100,336 Z" fill="url(#fc-bone)" stroke="#3a2a20" stroke-width="1" filter="url(#fc-bonetex)"/><path d="M176,350 Q199.0,353.0 222,362 L222,378 Q199.0,369.0 176,366 Z" fill="url(#fc-cart)" stroke="#3a2a20" stroke-width="1" /><path d="M176,350 L176,366" stroke="#3a2a20" stroke-width="0.9" opacity="0.7"/><ellipse cx="222" cy="370" rx="2.6" ry="8" fill="#dfe6e3" stroke="#3a2a20" stroke-width="0.9"/><path d="M500,320 Q492.0,332.0 484,350 L484,366 Q492.0,348.0 500,336 Z" fill="url(#fc-bone)" stroke="#3a2a20" stroke-width="1" filter="url(#fc-bonetex)"/><path d="M484,350 Q461.0,353.0 438,362 L438,378 Q461.0,369.0 484,366 Z" fill="url(#fc-cart)" stroke="#3a2a20" stroke-width="1" /><path d="M484,350 L484,366" stroke="#3a2a20" stroke-width="0.9" opacity="0.7"/><ellipse cx="438" cy="370" rx="2.6" ry="8" fill="#dfe6e3" stroke="#3a2a20" stroke-width="0.9"/><path d="M100,368 Q138.0,380.0 176,398 L176,414 Q138.0,396.0 100,384 Z" fill="url(#fc-bone)" stroke="#3a2a20" stroke-width="1" filter="url(#fc-bonetex)"/><path d="M176,398 Q199.0,401.0 222,410 L222,426 Q199.0,417.0 176,414 Z" fill="url(#fc-cart)" stroke="#3a2a20" stroke-width="1" /><path d="M176,398 L176,414" stroke="#3a2a20" stroke-width="0.9" opacity="0.7"/><ellipse cx="222" cy="418" rx="2.6" ry="8" fill="#dfe6e3" stroke="#3a2a20" stroke-width="0.9"/><path d="M500,368 Q492.0,380.0 484,398 L484,414 Q492.0,396.0 500,384 Z" fill="url(#fc-bone)" stroke="#3a2a20" stroke-width="1" filter="url(#fc-bonetex)"/><path d="M484,398 Q461.0,401.0 438,410 L438,426 Q461.0,417.0 484,414 Z" fill="url(#fc-cart)" stroke="#3a2a20" stroke-width="1" /><path d="M484,398 L484,414" stroke="#3a2a20" stroke-width="0.9" opacity="0.7"/><ellipse cx="438" cy="418" rx="2.6" ry="8" fill="#dfe6e3" stroke="#3a2a20" stroke-width="0.9"/><path d="M100,416 Q138.0,428.0 176,446 L176,462 Q138.0,444.0 100,432 Z" fill="url(#fc-bone)" stroke="#3a2a20" stroke-width="1" filter="url(#fc-bonetex)"/><path d="M176,446 Q199.0,449.0 222,458 L222,474 Q199.0,465.0 176,462 Z" fill="url(#fc-cart)" stroke="#3a2a20" stroke-width="1" /><path d="M176,446 L176,462" stroke="#3a2a20" stroke-width="0.9" opacity="0.7"/><ellipse cx="222" cy="466" rx="2.6" ry="8" fill="#dfe6e3" stroke="#3a2a20" stroke-width="0.9"/><path d="M500,416 Q492.0,428.0 484,446 L484,462 Q492.0,444.0 500,432 Z" fill="url(#fc-bone)" stroke="#3a2a20" stroke-width="1" filter="url(#fc-bonetex)"/><path d="M484,446 Q461.0,449.0 438,458 L438,474 Q461.0,465.0 484,462 Z" fill="url(#fc-cart)" stroke="#3a2a20" stroke-width="1" /><path d="M484,446 L484,462" stroke="#3a2a20" stroke-width="0.9" opacity="0.7"/><ellipse cx="438" cy="466" rx="2.6" ry="8" fill="#dfe6e3" stroke="#3a2a20" stroke-width="0.9"/><path d="M100,464 Q138.0,476.0 176,494 L176,510 Q138.0,492.0 100,480 Z" fill="url(#fc-bone)" stroke="#3a2a20" stroke-width="1" filter="url(#fc-bonetex)"/><path d="M176,494 Q199.0,497.0 222,506 L222,522 Q199.0,513.0 176,510 Z" fill="url(#fc-cart)" stroke="#3a2a20" stroke-width="1" /><path d="M176,494 L176,510" stroke="#3a2a20" stroke-width="0.9" opacity="0.7"/><ellipse cx="222" cy="514" rx="2.6" ry="8" fill="#dfe6e3" stroke="#3a2a20" stroke-width="0.9"/><path d="M500,464 Q492.0,476.0 484,494 L484,510 Q492.0,492.0 500,480 Z" fill="url(#fc-bone)" stroke="#3a2a20" stroke-width="1" filter="url(#fc-bonetex)"/><path d="M484,494 Q461.0,497.0 438,506 L438,522 Q461.0,513.0 484,510 Z" fill="url(#fc-cart)" stroke="#3a2a20" stroke-width="1" /><path d="M484,494 L484,510" stroke="#3a2a20" stroke-width="0.9" opacity="0.7"/><ellipse cx="438" cy="514" rx="2.6" ry="8" fill="#dfe6e3" stroke="#3a2a20" stroke-width="0.9"/><path d="M100,512 Q138.0,524.0 176,542 L176,558 Q138.0,540.0 100,528 Z" fill="url(#fc-bone)" stroke="#3a2a20" stroke-width="1" filter="url(#fc-bonetex)"/><path d="M176,542 Q199.0,545.0 222,554 L222,570 Q199.0,561.0 176,558 Z" fill="url(#fc-cart)" stroke="#3a2a20" stroke-width="1" /><path d="M176,542 L176,558" stroke="#3a2a20" stroke-width="0.9" opacity="0.7"/><ellipse cx="222" cy="562" rx="2.6" ry="8" fill="#dfe6e3" stroke="#3a2a20" stroke-width="0.9"/><path d="M500,512 Q492.0,524.0 484,542 L484,558 Q492.0,540.0 500,528 Z" fill="url(#fc-bone)" stroke="#3a2a20" stroke-width="1" filter="url(#fc-bonetex)"/><path d="M484,542 Q461.0,545.0 438,554 L438,570 Q461.0,561.0 484,558 Z" fill="url(#fc-cart)" stroke="#3a2a20" stroke-width="1" /><path d="M484,542 L484,558" stroke="#3a2a20" stroke-width="0.9" opacity="0.7"/><ellipse cx="438" cy="562" rx="2.6" ry="8" fill="#dfe6e3" stroke="#3a2a20" stroke-width="0.9"/>
<g clip-path="url(#fc-rw)"><path d="M222,318 L438,318 C448,400 450,480 444,600 L222,600 C214,480 214,400 222,318 Z" fill="url(#fc-lung)" filter="url(#fc-lungtex)"/><path d="M293,362 l2.7,-5.1 l0.5,-1.3" fill="none" stroke="#5a3a3c" stroke-width="0.6" opacity="0.45"/><path d="M235,462 l-8.3,-0.8 l-6.0,-4.1" fill="none" stroke="#5a3a3c" stroke-width="0.6" opacity="0.45"/><path d="M315,552 l-6.8,-3.3 l1.8,4.5" fill="none" stroke="#5a3a3c" stroke-width="0.6" opacity="0.45"/><path d="M348,431 l8.6,-5.4 l5.0,-2.1" fill="none" stroke="#5a3a3c" stroke-width="0.6" opacity="0.45"/><path d="M253,353 l-3.4,3.8 l-4.5,0.8" fill="none" stroke="#5a3a3c" stroke-width="0.6" opacity="0.45"/><path d="M361,424 l0.9,-5.2 l-6.2,-2.9" fill="none" stroke="#5a3a3c" stroke-width="0.6" opacity="0.45"/><path d="M370,440 l-3.3,1.0 l-0.7,-2.0" fill="none" stroke="#5a3a3c" stroke-width="0.6" opacity="0.45"/><path d="M395,516 l-4.6,0.9 l0.4,3.8" fill="none" stroke="#5a3a3c" stroke-width="0.6" opacity="0.45"/><path d="M381,401 l8.6,-4.6 l-1.1,2.6" fill="none" stroke="#5a3a3c" stroke-width="0.6" opacity="0.45"/><path d="M255,457 l-8.3,2.0 l3.7,0.7" fill="none" stroke="#5a3a3c" stroke-width="0.6" opacity="0.45"/><path d="M413,408 l3.5,1.1 l1.1,-0.4" fill="none" stroke="#5a3a3c" stroke-width="0.6" opacity="0.45"/><path d="M405,585 l-0.5,2.0 l-6.2,2.0" fill="none" stroke="#5a3a3c" stroke-width="0.6" opacity="0.45"/><path d="M363,598 l5.8,-2.6 l-1.6,1.7" fill="none" stroke="#5a3a3c" stroke-width="0.6" opacity="0.45"/><path d="M227,449 l-6.0,-4.6 l-6.2,2.7" fill="none" stroke="#5a3a3c" stroke-width="0.6" opacity="0.45"/><path d="M250,389 l-2.0,4.5 l-5.9,-0.5" fill="none" stroke="#5a3a3c" stroke-width="0.6" opacity="0.45"/><path d="M342,567 l5.7,4.4 l-3.1,-0.8" fill="none" stroke="#5a3a3c" stroke-width="0.6" opacity="0.45"/><path d="M300,568 l8.2,-4.2 l-4.5,-2.7" fill="none" stroke="#5a3a3c" stroke-width="0.6" opacity="0.45"/><path d="M273,456 l1.6,-2.8 l-6.9,-0.8" fill="none" stroke="#5a3a3c" stroke-width="0.6" opacity="0.45"/><path d="M302,479 l8.2,2.3 l0.2,1.2" fill="none" stroke="#5a3a3c" stroke-width="0.6" opacity="0.45"/><path d="M369,335 l7.2,3.4 l5.2,3.0" fill="none" stroke="#5a3a3c" stroke-width="0.6" opacity="0.45"/><path d="M308,432 l-7.1,1.6 l-6.1,-4.3" fill="none" stroke="#5a3a3c" stroke-width="0.6" opacity="0.45"/><path d="M268,365 l-2.9,-5.4 l-7.0,-3.5" fill="none" stroke="#5a3a3c" stroke-width="0.6" opacity="0.45"/><path d="M244,422 l-8.5,4.5 l1.6,-3.5" fill="none" stroke="#5a3a3c" stroke-width="0.6" opacity="0.45"/><path d="M277,417 l-2.4,-4.5 l4.9,4.9" fill="none" stroke="#5a3a3c" stroke-width="0.6" opacity="0.45"/><path d="M324,455 l-7.5,-4.8 l-2.2,-2.4" fill="none" stroke="#5a3a3c" stroke-width="0.6" opacity="0.45"/><path d="M403,365 l-8.6,5.4 l0.4,-3.5" fill="none" stroke="#5a3a3c" stroke-width="0.6" opacity="0.45"/><path d="M232,330 C226,420 226,500 232,590" fill="none" stroke="#fff" stroke-width="5" opacity="0.25" filter="url(#fc-blur2)"/><path d="M242,332 C282,318 362,318 424,332 C446,400 454,480 436,570 C386,592 292,592 252,570 C230,480 230,400 242,332 Z" fill="url(#fc-pcav)"/><g><path d="M262,300 L262,392" fill="none" stroke="#3a2a20" stroke-width="27.2"/><path d="M262,300 L262,392" fill="none" stroke="#26354f" stroke-width="25"/><path d="M262,300 L262,392" fill="none" stroke="#3f5a8a" stroke-width="15.5" transform="translate(-1.2,-0.4)"></path><path d="M262,300 L262,392" fill="none" stroke="#9aabc8" stroke-width="4.0" stroke-opacity="0.38" stroke-linecap="round" transform="translate(-3,-1)"/></g><g><path d="M303,396 C298,358 300,334 322,328 C352,322 380,330 392,356 L398,396" fill="none" stroke="#3a2a20" stroke-width="32.2"/><path d="M303,396 C298,358 300,334 322,328 C352,322 380,330 392,356 L398,396" fill="none" stroke="#7a2420" stroke-width="30"/><path d="M303,396 C298,358 300,334 322,328 C352,322 380,330 392,356 L398,396" fill="none" stroke="#a8362f" stroke-width="18.6" transform="translate(-1.2,-0.4)"></path><path d="M303,396 C298,358 300,334 322,328 C352,322 380,330 392,356 L398,396" fill="none" stroke="#dc9187" stroke-width="4.8" stroke-opacity="0.38" stroke-linecap="round" transform="translate(-3,-1)"/></g><g><path d="M350,400 C346,376 344,356 356,342 C368,332 386,334 402,342" fill="none" stroke="#3a2a20" stroke-width="27.2"/><path d="M350,400 C346,376 344,356 356,342 C368,332 386,334 402,342" fill="none" stroke="#3b3f60" stroke-width="25"/><path d="M350,400 C346,376 344,356 356,342 C368,332 386,334 402,342" fill="none" stroke="#5a5f86" stroke-width="15.5" transform="translate(-1.2,-0.8)"></path><path d="M350,400 C346,376 344,356 356,342 C368,332 386,334 402,342" fill="none" stroke="#a9adc9" stroke-width="4.0" stroke-opacity="0.38" stroke-linecap="round" transform="translate(-3,-2)"/></g><g transform="translate(340,455) scale(1.05,1.15) translate(0,12)"><g><animateTransform attributeName="transform" type="scale" values="1;1.035;0.99;1" keyTimes="0;0.18;0.45;1" dur="0.57s" repeatCount="indefinite"/><g transform="translate(-340,-455)"><path d="M268,372 C249,386 239,420 243,462 C247,502 272,526 306,533 C352,542 402,531 431,508 C442,486 438,450 422,420 C410,398 396,385 382,378 C368,371 350,372 338,372 L300,368 Z" fill="url(#fc-heart)" stroke="#3a2a20" stroke-width="1.3"/><path d="M268,372 C249,386 239,420 243,462 C247,502 272,526 306,533 C352,542 402,531 431,508 C442,486 438,450 422,420 C410,398 396,385 382,378 C368,371 350,372 338,372 L300,368 Z" fill="url(#fc-fibHeart)" filter="url(#fc-mustex)" opacity="0.8"/><path d="M268,372 C249,386 239,420 243,462 C252,472 264,468 270,454 C274,428 276,400 284,380 Z" fill="url(#fc-ra)" stroke="#3a2a20" stroke-width="1"/><path d="M270,376 C282,366 300,364 306,372 C300,382 290,388 280,392 Z" fill="#8a3e48" stroke="#3a2a20" stroke-width="0.9"/><path d="M392,380 C404,374 418,380 418,392 C412,398 402,398 394,394 Z" fill="#8c3a33" stroke="#3a2a20" stroke-width="0.9"/><path d="M284,378 C274,410 266,446 272,478 C280,505 292,522 306,530" fill="none" stroke="#e8d3a4" stroke-width="11" stroke-linecap="round" opacity="0.8" filter="url(#fc-blur1)"/><path d="M372,380 C386,420 398,470 410,522" fill="none" stroke="#e8d3a4" stroke-width="10" stroke-linecap="round" opacity="0.8" filter="url(#fc-blur1)"/><path d="M284,380 C275,410 268,446 273,478 C280,504 292,520 306,528" fill="none" stroke="#a8362f" stroke-width="2" opacity="0.85"/><path d="M371,380 C385,420 397,470 409,522" fill="none" stroke="#a8362f" stroke-width="1.9" opacity="0.85"/><path d="M376,382 C390,422 402,472 413,520" fill="none" stroke="#3f5a8a" stroke-width="1.8"/><path d="M390,440 q11.0,2.0 22,10" fill="none" stroke="#b8322c" stroke-width="1.1" opacity="0.8"/><path d="M398,470 q10.0,3.6 20,18" fill="none" stroke="#b8322c" stroke-width="1.1" opacity="0.8"/><path d="M380,420 q-9.0,4.0 -18,20" fill="none" stroke="#b8322c" stroke-width="1.1" opacity="0.8"/><path d="M275,440 q9.0,2.4000000000000004 18,12" fill="none" stroke="#b8322c" stroke-width="1.1" opacity="0.8"/><path d="M292,412 C322,400 372,400 402,420 C412,450 406,490 386,506 C350,517 310,514 293,497 C282,472 282,442 292,412 Z" fill="url(#fc-cut)" stroke="#3a2a20" stroke-width="1.2"/><path d="M292,412 C322,400 372,400 402,420 C412,450 406,490 386,506 C350,517 310,514 293,497 C282,472 282,442 292,412 Z" fill="url(#fc-fibHeart)" opacity="0.6"/><path d="M301,418 C309,409 325,407 336,413 C339,421 337,431 333,436 C321,440 308,437 302,431 C299,427 299,422 301,418 Z" fill="url(#fc-cav)" stroke="#5a1814" stroke-width="0.8"/><path d="M353,416 C362,409 378,410 390,418 C393,425 391,432 386,436 C374,439 361,438 355,433 C352,428 352,421 353,416 Z" fill="url(#fc-cav)" stroke="#5a1814" stroke-width="0.8"/><path d="M303,448 C313,445 328,445 336,449 C335,462 331,477 323,490 C313,486 305,476 302,466 C301,459 301,453 303,448 Z" fill="url(#fc-cav)" stroke="#5a1814" stroke-width="0.8"/><path d="M357,449 C367,446 380,447 388,452 C390,467 385,483 374,496 C365,487 359,474 357,462 C356,457 356,452 357,449 Z" fill="url(#fc-cav)" stroke="#5a1814" stroke-width="0.8"/><path d="M305,462 q3.0,1 6,3" fill="none" stroke="#9a3c33" stroke-width="1.3" stroke-linecap="round" opacity="0.9"/><path d="M307,472 q3.0,-1 6,1" fill="none" stroke="#9a3c33" stroke-width="1.3" stroke-linecap="round" opacity="0.9"/><path d="M312,482 q2.5,-3 5,-1" fill="none" stroke="#9a3c33" stroke-width="1.3" stroke-linecap="round" opacity="0.9"/><path d="M330,460 q-2.5,1 -5,3" fill="none" stroke="#9a3c33" stroke-width="1.3" stroke-linecap="round" opacity="0.9"/><path d="M360,462 q3.0,0 6,2" fill="none" stroke="#9a3c33" stroke-width="1.3" stroke-linecap="round" opacity="0.9"/><path d="M361,474 q3.0,-2 6,0" fill="none" stroke="#9a3c33" stroke-width="1.3" stroke-linecap="round" opacity="0.9"/><path d="M366,484 q2.5,-4 5,-2" fill="none" stroke="#9a3c33" stroke-width="1.3" stroke-linecap="round" opacity="0.9"/><path d="M385,462 q-3.0,0 -6,2" fill="none" stroke="#9a3c33" stroke-width="1.3" stroke-linecap="round" opacity="0.9"/><path d="M382,474 q-3.0,-1 -6,1" fill="none" stroke="#9a3c33" stroke-width="1.3" stroke-linecap="round" opacity="0.9"/><path d="M305,441 Q309,451 314,456 M334,441 Q330,450 326,455" fill="none" stroke="#efe0cf" stroke-width="1.6" stroke-linecap="round" opacity="0.95"/><path d="M314,456 L317,477 M311,454 L316,477 M326,455 L319,477 M329,453 L320,477" fill="none" stroke="#efe0cf" stroke-width="0.45" opacity="0.9"/><path d="M313,486 C314,478 322,476 323,486 Z" fill="#b0544a" stroke="#5a1814" stroke-width="0.6"/><path d="M359,441 Q363,451 368,456 M386,441 Q382,450 378,455" fill="none" stroke="#efe0cf" stroke-width="1.6" stroke-linecap="round" opacity="0.95"/><path d="M368,456 L371,477 M365,454 L370,477 M378,455 L373,477 M381,453 L374,477" fill="none" stroke="#efe0cf" stroke-width="0.45" opacity="0.9"/><path d="M367,486 C368,478 376,476 377,486 Z" fill="#b0544a" stroke="#5a1814" stroke-width="0.6"/><path d="M345,411 C344,420 345,430 345,438" fill="none" stroke="#c46a5f" stroke-width="2.2"/><path d="M292,441 C320,443 370,443 402,440" fill="none" stroke="#e8d3a4" stroke-width="2.2" opacity="0.85"/><path d="M294,414 C322,403 372,403 400,422" fill="none" stroke="#f0b8ab" stroke-width="1.2" opacity="0.8"/><path d="M262,400 C258,420 256,440 260,460" fill="none" stroke="#fff" stroke-width="4" opacity="0.35" filter="url(#fc-blur1)"/><ellipse cx="330" cy="392" rx="26" ry="6" fill="#fff" opacity="0.22" filter="url(#fc-blur2)"/></g></g></g><path d="M242,332 C282,318 362,318 424,332 C446,400 454,480 436,570 C386,592 292,592 252,570 C230,480 230,400 242,332 Z" fill="none" stroke="#e7ddcd" stroke-width="4"/><path d="M242,332 C282,318 362,318 424,332 C446,400 454,480 436,570 C386,592 292,592 252,570 C230,480 230,400 242,332 Z" fill="none" stroke="#3a2a20" stroke-width="0.8" opacity="0.6"/><path d="M242,340 C232,372 227,410 229,446 C233,440 235,436 236,428 C238,400 242,372 250,346 Z" fill="#e6dccb" stroke="#3a2a20" stroke-width="0.7" opacity="0.75"/><path d="M424,340 C436,372 442,410 440,446 C436,440 434,436 433,428 C432,400 428,372 418,346 Z" fill="#e6dccb" stroke="#3a2a20" stroke-width="0.7" opacity="0.75"/><path d="M236,330 C232,400 234,480 240,590" fill="none" stroke="#efe2b8" stroke-width="2.2"/><path d="M430,330 C438,400 440,480 436,590" fill="none" stroke="#efe2b8" stroke-width="2.2"/></g>
<path d="M222,318 L438,318 C448,400 450,480 444,600 L222,600 C214,480 214,400 222,318 Z" fill="none" stroke="#3a2a20" stroke-width="1.1"/>
<path d="M238,40 C241,120 246,200 256,268" fill="none" stroke="#3a2a20" stroke-width="4.4" opacity="0.8"/><path d="M238,40 C241,120 246,200 256,268" fill="none" stroke="#e9dcb0" stroke-width="3"/><g><path d="M272,270 C266,230 261,180 259,124" fill="none" stroke="#3a2a20" stroke-width="18.2"/><path d="M272,270 C266,230 261,180 259,124" fill="none" stroke="#7a2420" stroke-width="16"/><path d="M272,270 C266,230 261,180 259,124" fill="none" stroke="#a8362f" stroke-width="9.9" transform="translate(-1.2,-0.4)"><animate attributeName="stroke-width" values="9.9;11.4;10.2;9.9" keyTimes="0;0.2;0.5;1" dur="0.57s" repeatCount="indefinite"/></path><path d="M272,270 C266,230 261,180 259,124" fill="none" stroke="#dc9187" stroke-width="2.6" stroke-opacity="0.38" stroke-linecap="round" transform="translate(-3,-1)"/></g><g><path d="M259,126 C256,100 251,70 248,34" fill="none" stroke="#3a2a20" stroke-width="14.2"/><path d="M259,126 C256,100 251,70 248,34" fill="none" stroke="#7a2420" stroke-width="12"/><path d="M259,126 C256,100 251,70 248,34" fill="none" stroke="#a8362f" stroke-width="7.4" transform="translate(-1.2,-0.4)"></path><path d="M259,126 C256,100 251,70 248,34" fill="none" stroke="#dc9187" stroke-width="1.9" stroke-opacity="0.38" stroke-linecap="round" transform="translate(-3,-1)"/></g><g><path d="M260,126 C266,100 270,70 274,34" fill="none" stroke="#3a2a20" stroke-width="12.2"/><path d="M260,126 C266,100 270,70 274,34" fill="none" stroke="#7a2420" stroke-width="10"/><path d="M260,126 C266,100 270,70 274,34" fill="none" stroke="#a8362f" stroke-width="6.2" transform="translate(-1.2,-0.4)"></path><path d="M260,126 C266,100 270,70 274,34" fill="none" stroke="#dc9187" stroke-width="1.6" stroke-opacity="0.38" stroke-linecap="round" transform="translate(-3,-1)"/></g><g><path d="M266,114 C276,116 284,122 290,132" fill="none" stroke="#3a2a20" stroke-width="6.2"/><path d="M266,114 C276,116 284,122 290,132" fill="none" stroke="#7a2420" stroke-width="4"/><path d="M266,114 C276,116 284,122 290,132" fill="none" stroke="#a8362f" stroke-width="2.5" transform="translate(-0.4,-0.4)"></path><path d="M266,114 C276,116 284,122 290,132" fill="none" stroke="#dc9187" stroke-width="1.2" stroke-opacity="0.38" stroke-linecap="round" transform="translate(-1,-1)"/></g><g><path d="M270,264 C240,250 205,250 150,256" fill="none" stroke="#3a2a20" stroke-width="17.2"/><path d="M270,264 C240,250 205,250 150,256" fill="none" stroke="#7a2420" stroke-width="15"/><path d="M270,264 C240,250 205,250 150,256" fill="none" stroke="#a8362f" stroke-width="9.3" transform="translate(-1.2,-0.4)"></path><path d="M270,264 C240,250 205,250 150,256" fill="none" stroke="#dc9187" stroke-width="2.4" stroke-opacity="0.38" stroke-linecap="round" transform="translate(-3,-1)"/></g><g><path d="M328,270 C334,210 340,150 346,34" fill="none" stroke="#3a2a20" stroke-width="17.2"/><path d="M328,270 C334,210 340,150 346,34" fill="none" stroke="#7a2420" stroke-width="15"/><path d="M328,270 C334,210 340,150 346,34" fill="none" stroke="#a8362f" stroke-width="9.3" transform="translate(-1.2,-0.4)"><animate attributeName="stroke-width" values="9.9;11.4;10.2;9.9" keyTimes="0;0.2;0.5;1" dur="0.57s" repeatCount="indefinite"/></path><path d="M328,270 C334,210 340,150 346,34" fill="none" stroke="#dc9187" stroke-width="2.4" stroke-opacity="0.38" stroke-linecap="round" transform="translate(-3,-1)"/></g><g><path d="M334,264 C362,252 400,250 452,256" fill="none" stroke="#3a2a20" stroke-width="17.2"/><path d="M334,264 C362,252 400,250 452,256" fill="none" stroke="#7a2420" stroke-width="15"/><path d="M334,264 C362,252 400,250 452,256" fill="none" stroke="#a8362f" stroke-width="9.3" transform="translate(-1.2,-0.4)"></path><path d="M334,264 C362,252 400,250 452,256" fill="none" stroke="#dc9187" stroke-width="2.4" stroke-opacity="0.38" stroke-linecap="round" transform="translate(-3,-1)"/></g><g><path d="M250,272 C215,262 180,262 140,270" fill="none" stroke="#3a2a20" stroke-width="18.2"/><path d="M250,272 C215,262 180,262 140,270" fill="none" stroke="#26354f" stroke-width="16"/><path d="M250,272 C215,262 180,262 140,270" fill="none" stroke="#3f5a8a" stroke-width="9.9" transform="translate(-1.2,-0.4)"></path><path d="M250,272 C215,262 180,262 140,270" fill="none" stroke="#9aabc8" stroke-width="2.6" stroke-opacity="0.38" stroke-linecap="round" transform="translate(-3,-1)"/></g><g><path d="M352,272 C385,262 420,262 460,270" fill="none" stroke="#3a2a20" stroke-width="18.2"/><path d="M352,272 C385,262 420,262 460,270" fill="none" stroke="#26354f" stroke-width="16"/><path d="M352,272 C385,262 420,262 460,270" fill="none" stroke="#3f5a8a" stroke-width="9.9" transform="translate(-1.2,-0.4)"></path><path d="M352,272 C385,262 420,262 460,270" fill="none" stroke="#9aabc8" stroke-width="2.6" stroke-opacity="0.38" stroke-linecap="round" transform="translate(-3,-1)"/></g><g><path d="M372,40 C370,120 366,200 350,266" fill="none" stroke="#3a2a20" stroke-width="20.2"/><path d="M372,40 C370,120 366,200 350,266" fill="none" stroke="#26354f" stroke-width="18"/><path d="M372,40 C370,120 366,200 350,266" fill="none" stroke="#3f5a8a" stroke-width="11.2" transform="translate(-1.2,-0.4)"></path><path d="M372,40 C370,120 366,200 350,266" fill="none" stroke="#9aabc8" stroke-width="2.9" stroke-opacity="0.38" stroke-linecap="round" transform="translate(-3,-1)"/></g><path d="M205,40 C208,110 212,180 216,236 C218,256 222,270 232,278 L256,276 C250,262 246,250 243,236 C238,180 232,110 227,40 Z" fill="url(#fc-flat)" stroke="#3a2a20" stroke-width="1.2"/><path d="M216,40 C219,110 223,180 229,236" fill="none" stroke="#6c7390" stroke-width="1.1" opacity="0.7"/><path d="M210,48 C212,110 216,170 220,226" fill="none" stroke="#fff" stroke-width="1.6" opacity="0.45"/><g clip-path="url(#fc-ijv)"><rect x="195" y="222" width="70" height="80" fill="url(#fc-blood)"><animate attributeName="y" values="222;215;223;225;218;222" keyTimes="0;0.15;0.35;0.52;0.74;1" dur="0.57s" repeatCount="indefinite"/><animate attributeName="height" values="80;87;79;77;84;80" keyTimes="0;0.15;0.35;0.52;0.74;1" dur="0.57s" repeatCount="indefinite"/></rect><rect x="195" y="221" width="70" height="3" fill="#8fa6cf" opacity="0.8"><animate attributeName="y" values="221;214;222;224;217;221" keyTimes="0;0.15;0.35;0.52;0.74;1" dur="0.57s" repeatCount="indefinite"/></rect><path d="M224,230 C226,250 230,262 238,272" fill="none" stroke="#9fb2d8" stroke-width="2.2" opacity="0.55"/></g><path d="M205,40 C208,110 212,180 216,236 C218,256 222,270 232,278 L256,276 C250,262 246,250 243,236 C238,180 232,110 227,40 Z" fill="none" stroke="#3a2a20" stroke-width="1.2"/><path d="M282,112 L318,112 L318,266 L282,266 Z" fill="url(#fc-trach)" stroke="#3a2a20" stroke-width="1.1"/><path d="M283,118 Q300,121 317,118" fill="none" stroke="#b39585" stroke-width="2.2" opacity="0.8"/><path d="M283,119.5 Q300,122.5 317,119.5" fill="none" stroke="#fff" stroke-width="0.8" opacity="0.5"/><path d="M283,128 Q300,131 317,128" fill="none" stroke="#b39585" stroke-width="2.2" opacity="0.8"/><path d="M283,129.5 Q300,132.5 317,129.5" fill="none" stroke="#fff" stroke-width="0.8" opacity="0.5"/><path d="M283,138 Q300,141 317,138" fill="none" stroke="#b39585" stroke-width="2.2" opacity="0.8"/><path d="M283,139.5 Q300,142.5 317,139.5" fill="none" stroke="#fff" stroke-width="0.8" opacity="0.5"/><path d="M283,148 Q300,151 317,148" fill="none" stroke="#b39585" stroke-width="2.2" opacity="0.8"/><path d="M283,149.5 Q300,152.5 317,149.5" fill="none" stroke="#fff" stroke-width="0.8" opacity="0.5"/><path d="M283,158 Q300,161 317,158" fill="none" stroke="#b39585" stroke-width="2.2" opacity="0.8"/><path d="M283,159.5 Q300,162.5 317,159.5" fill="none" stroke="#fff" stroke-width="0.8" opacity="0.5"/><path d="M283,168 Q300,171 317,168" fill="none" stroke="#b39585" stroke-width="2.2" opacity="0.8"/><path d="M283,169.5 Q300,172.5 317,169.5" fill="none" stroke="#fff" stroke-width="0.8" opacity="0.5"/><path d="M283,178 Q300,181 317,178" fill="none" stroke="#b39585" stroke-width="2.2" opacity="0.8"/><path d="M283,179.5 Q300,182.5 317,179.5" fill="none" stroke="#fff" stroke-width="0.8" opacity="0.5"/><path d="M283,188 Q300,191 317,188" fill="none" stroke="#b39585" stroke-width="2.2" opacity="0.8"/><path d="M283,189.5 Q300,192.5 317,189.5" fill="none" stroke="#fff" stroke-width="0.8" opacity="0.5"/><path d="M283,198 Q300,201 317,198" fill="none" stroke="#b39585" stroke-width="2.2" opacity="0.8"/><path d="M283,199.5 Q300,202.5 317,199.5" fill="none" stroke="#fff" stroke-width="0.8" opacity="0.5"/><path d="M283,208 Q300,211 317,208" fill="none" stroke="#b39585" stroke-width="2.2" opacity="0.8"/><path d="M283,209.5 Q300,212.5 317,209.5" fill="none" stroke="#fff" stroke-width="0.8" opacity="0.5"/><path d="M283,218 Q300,221 317,218" fill="none" stroke="#b39585" stroke-width="2.2" opacity="0.8"/><path d="M283,219.5 Q300,222.5 317,219.5" fill="none" stroke="#fff" stroke-width="0.8" opacity="0.5"/><path d="M283,228 Q300,231 317,228" fill="none" stroke="#b39585" stroke-width="2.2" opacity="0.8"/><path d="M283,229.5 Q300,232.5 317,229.5" fill="none" stroke="#fff" stroke-width="0.8" opacity="0.5"/><path d="M283,238 Q300,241 317,238" fill="none" stroke="#b39585" stroke-width="2.2" opacity="0.8"/><path d="M283,239.5 Q300,242.5 317,239.5" fill="none" stroke="#fff" stroke-width="0.8" opacity="0.5"/><path d="M283,248 Q300,251 317,248" fill="none" stroke="#b39585" stroke-width="2.2" opacity="0.8"/><path d="M283,249.5 Q300,252.5 317,249.5" fill="none" stroke="#fff" stroke-width="0.8" opacity="0.5"/><path d="M283,258 Q300,261 317,258" fill="none" stroke="#b39585" stroke-width="2.2" opacity="0.8"/><path d="M283,259.5 Q300,262.5 317,259.5" fill="none" stroke="#fff" stroke-width="0.8" opacity="0.5"/><path d="M281,98 L319,98 L320,114 L280,114 Z" fill="url(#fc-trach)" stroke="#3a2a20" stroke-width="1"/><path d="M286,90 L314,90 L318,98 L282,98 Z" fill="#c9998b" stroke="#3a2a20" stroke-width="0.8"/><path d="M266,34 L334,34 C332,56 322,78 314,90 L286,90 C278,78 268,56 266,34 Z" fill="url(#fc-trach)" stroke="#3a2a20" stroke-width="1.2"/><path d="M300,36 L300,74" stroke="#3a2a20" stroke-width="0.9" opacity="0.55"/><path d="M292,36 C294,50 297,62 300,74" fill="none" stroke="#fff" stroke-width="2" opacity="0.5"/><path d="M268,128 C258,140 258,178 266,206 C274,214 286,210 290,198 L290,170 L310,170 L310,198 C314,210 326,214 334,206 C342,178 342,140 332,128 C322,122 314,136 312,150 L288,150 C286,136 278,122 268,128 Z" fill="url(#fc-gland)" stroke="#3a2a20" stroke-width="1.1" filter="url(#fc-glandtex)"/><path d="M268,128 C258,140 258,178 266,206 C274,214 286,210 290,198 L290,170 L310,170 L310,198 C314,210 326,214 334,206 C342,178 342,140 332,128 C322,122 314,136 312,150 L288,150 C286,136 278,122 268,128 Z" fill="none" stroke="#3a2a20" stroke-width="1.1"/><path d="M270,140 C266,160 267,180 272,196 M330,140 C334,160 333,180 328,196" fill="none" stroke="#e0978a" stroke-width="2" opacity="0.55"/><path d="M158,34 C176,32 192,36 200,42 C198,110 196,170 212,234 L218,262 L172,262 C170,230 160,190 150,150 C142,110 144,60 158,34 Z" fill="url(#fc-muscleR)" filter="url(#fc-mustex)"/><path d="M158,34 C176,32 192,36 200,42 C198,110 196,170 212,234 L218,262 L172,262 C170,230 160,190 150,150 C142,110 144,60 158,34 Z" fill="url(#fc-fibScmR)"/><path d="M158,34 C176,32 192,36 200,42 C198,110 196,170 212,234 L218,262 L172,262 C170,230 160,190 150,150 C142,110 144,60 158,34 Z" fill="none" stroke="#3a2a20" stroke-width="1.2"/><path d="M190,60 C188,120 190,180 204,232" fill="none" stroke="#e39b8e" stroke-width="2" opacity="0.5"/><path d="M262,262 L284,262 L280,242 C274,238 266,240 262,246 Z" fill="#b95a4f" stroke="#3a2a20" stroke-width="1"/><path d="M263,247 C268,241 276,240 280,243 L279,248 C272,246 267,248 263,252 Z" fill="#e8a295" stroke="#3a2a20" stroke-width="0.6"/><path d="M166,164 C196,150 236,128 280,102 C284,104 286,108 286,112 C246,140 206,164 172,182 C168,178 166,170 166,164 Z" fill="#a84a40" filter="url(#fc-mustex)"/><path d="M166,164 C196,150 236,128 280,102 C284,104 286,108 286,112 C246,140 206,164 172,182 C168,178 166,170 166,164 Z" fill="url(#fc-fibOmo)"/><path d="M208,146 C216,141 224,137 232,132 L236,140 C228,145 220,150 212,155 Z" fill="#efe6d6" opacity="0.92"/><path d="M166,164 C196,150 236,128 280,102 C284,104 286,108 286,112 C246,140 206,164 172,182 C168,178 166,170 166,164 Z" fill="none" stroke="#3a2a20" stroke-width="1"/><path d="M172,168 C204,152 240,130 280,106" fill="none" stroke="#e39b8e" stroke-width="1.4" opacity="0.5"/><g filter="url(#fc-shd)"><path d="M110,150 C130,146 146,146 156,150 C164,154 164,164 156,166 L152,160 C150,156 140,156 110,160 Z" fill="url(#fc-steel)" stroke="#3a2a20" stroke-width="1"/></g><path d="M442,34 C424,32 408,36 400,42 C394,110 370,180 334,238 L322,262 L346,262 C352,252 360,250 366,262 L408,262 C420,200 448,140 455,92 C458,62 452,44 442,34 Z" fill="url(#fc-muscleL)" filter="url(#fc-mustex)"/><path d="M442,34 C424,32 408,36 400,42 C394,110 370,180 334,238 L322,262 L346,262 C352,252 360,250 366,262 L408,262 C420,200 448,140 455,92 C458,62 452,44 442,34 Z" fill="url(#fc-fibScmL)"/><path d="M442,34 C424,32 408,36 400,42 C394,110 370,180 334,238 L322,262 L346,262 C352,252 360,250 366,262 L408,262 C420,200 448,140 455,92 C458,62 452,44 442,34 Z" fill="none" stroke="#3a2a20" stroke-width="1.2"/><path d="M430,48 C426,110 410,180 390,236" fill="none" stroke="#e39b8e" stroke-width="2.4" opacity="0.5"/><path d="M346,262 C350,248 360,246 366,262" fill="#6b2621" stroke="#3a2a20" stroke-width="0.8"/><g filter="url(#fc-shd)"><path d="M262,251 C240,247 215,255 190,253 C160,250 130,239 100,235 L100,254 C130,258 160,270 190,272 C215,273 240,266 262,273 Z" fill="url(#fc-bone)" stroke="#3a2a20" stroke-width="1.2"/></g><path d="M262,251 C240,247 215,255 190,253 C160,250 130,239 100,235 L100,254 C130,258 160,270 190,272 C215,273 240,266 262,273 Z" fill="url(#fc-bone)" filter="url(#fc-bonetex)" opacity="0.8"/><path d="M250,256 C225,254 200,259 170,257" fill="none" stroke="#fff" stroke-width="2" opacity="0.6"/><g filter="url(#fc-shd)"><path d="M338,251 C360,247 385,255 410,253 C440,250 470,239 500,235 L500,254 C470,258 440,270 410,272 C385,273 360,266 338,273 Z" fill="url(#fc-bone)" stroke="#3a2a20" stroke-width="1.2"/></g><path d="M338,251 C360,247 385,255 410,253 C440,250 470,239 500,235 L500,254 C470,258 440,270 410,272 C385,273 360,266 338,273 Z" fill="url(#fc-bone)" filter="url(#fc-bonetex)" opacity="0.8"/><path d="M350,256 C375,254 400,259 430,257" fill="none" stroke="#fff" stroke-width="2" opacity="0.6"/><g filter="url(#fc-shd)"><path d="M258,256 C272,258 282,268 300,268 C318,268 328,258 342,256 L346,298 L338,318 L262,318 L254,298 Z" fill="url(#fc-bone)" stroke="#3a2a20" stroke-width="1.3"/></g><path d="M258,256 C272,258 282,268 300,268 C318,268 328,258 342,256 L346,298 L338,318 L262,318 L254,298 Z" fill="url(#fc-bone)" filter="url(#fc-bonetex)" opacity="0.7"/><path d="M262,312 L338,312 L338,318 L262,318 Z" fill="#d9b99a" stroke="#3a2a20" stroke-width="0.8"/><circle cx="264.0" cy="314.8" r="0.9" fill="#9a6b4f" opacity="0.8"/><circle cx="267.4" cy="313.2" r="0.9" fill="#9a6b4f" opacity="0.8"/><circle cx="270.8" cy="314.8" r="0.9" fill="#9a6b4f" opacity="0.8"/><circle cx="274.2" cy="316.2" r="0.9" fill="#9a6b4f" opacity="0.8"/><circle cx="277.6" cy="315.9" r="0.9" fill="#9a6b4f" opacity="0.8"/><circle cx="281.0" cy="315.3" r="0.9" fill="#9a6b4f" opacity="0.8"/><circle cx="284.4" cy="313.9" r="0.9" fill="#9a6b4f" opacity="0.8"/><circle cx="287.8" cy="314.3" r="0.9" fill="#9a6b4f" opacity="0.8"/><circle cx="291.2" cy="313.6" r="0.9" fill="#9a6b4f" opacity="0.8"/><circle cx="294.6" cy="315.6" r="0.9" fill="#9a6b4f" opacity="0.8"/><circle cx="298.0" cy="314.8" r="0.9" fill="#9a6b4f" opacity="0.8"/><circle cx="301.4" cy="315.6" r="0.9" fill="#9a6b4f" opacity="0.8"/><circle cx="304.8" cy="314.2" r="0.9" fill="#9a6b4f" opacity="0.8"/><circle cx="308.2" cy="313.8" r="0.9" fill="#9a6b4f" opacity="0.8"/><circle cx="311.6" cy="315.7" r="0.9" fill="#9a6b4f" opacity="0.8"/><circle cx="315.0" cy="316.3" r="0.9" fill="#9a6b4f" opacity="0.8"/><circle cx="318.4" cy="315.8" r="0.9" fill="#9a6b4f" opacity="0.8"/><circle cx="321.8" cy="315.7" r="0.9" fill="#9a6b4f" opacity="0.8"/><circle cx="325.2" cy="315.7" r="0.9" fill="#9a6b4f" opacity="0.8"/><circle cx="328.6" cy="315.5" r="0.9" fill="#9a6b4f" opacity="0.8"/><circle cx="332.0" cy="313.8" r="0.9" fill="#9a6b4f" opacity="0.8"/><circle cx="335.4" cy="314.8" r="0.9" fill="#9a6b4f" opacity="0.8"/><path d="M270,276 C290,282 310,282 330,276" fill="none" stroke="#fff" stroke-width="3" opacity="0.5" filter="url(#fc-blur1)"/>
</g>
<path d="M105,0 C108,90 110,150 95,190 C70,220 30,232 0,240 L0,600 L600,600 L600,240 C570,232 530,220 505,190 C490,150 492,90 495,0 Z M150,40 C148,110 150,170 138,212 C125,238 108,250 105,275 L120,600 L480,600 L495,275 C492,250 475,238 462,212 C450,170 452,110 450,40 C380,28 220,28 150,40 Z" fill-rule="evenodd" fill="url(#fc-skin)" filter="url(#fc-skintex)"/>
<path d="M105,0 C108,90 110,150 95,190 C70,220 30,232 0,240 L0,600 L600,600 L600,240 C570,232 530,220 505,190 C490,150 492,90 495,0 Z" fill="none" stroke="#3a2a20" stroke-width="1.3"/>
<g clip-path="url(#fc-win)"><path d="M150,40 C148,110 150,170 138,212 C125,238 108,250 105,275 L120,600 L480,600 L495,275 C492,250 475,238 462,212 C450,170 452,110 450,40 C380,28 220,28 150,40 Z" fill="none" stroke="#1d0d0a" stroke-width="22" opacity="0.45" filter="url(#fc-blur6)"/></g>
<path d="M150,40 C148,110 150,170 138,212 C125,238 108,250 105,275 L120,600 L480,600 L495,275 C492,250 475,238 462,212 C450,170 452,110 450,40 C380,28 220,28 150,40 Z" fill="none" stroke="url(#fc-fat)" stroke-width="9"/>
<path d="M150,40 C148,110 150,170 138,212 C125,238 108,250 105,275 L120,600 L480,600 L495,275 C492,250 475,238 462,212 C450,170 452,110 450,40 C380,28 220,28 150,40 Z" fill="none" stroke="#c98f80" stroke-width="2.2" transform="translate(0,-1)" opacity="0.9"/>
<path d="M150,40 C148,110 150,170 138,212 C125,238 108,250 105,275 L120,600 L480,600 L495,275 C492,250 475,238 462,212 C450,170 452,110 450,40 C380,28 220,28 150,40 Z" fill="none" stroke="#3a2a20" stroke-width="1"/>
<path d="M95,190 C70,220 30,232 0,240" fill="none" stroke="#fff" stroke-width="3" opacity="0.25" filter="url(#fc-blur2)"/>
<path d="M262,318 L118,318" stroke="#3a2a20" stroke-width="1" stroke-dasharray="4 3" opacity="0.7"/><path d="M214,222 L118,222" stroke="#3a2a20" stroke-width="1" stroke-dasharray="4 3" opacity="0.7"/><path d="M124,222 L124,318" stroke="#f7f2e8" stroke-width="3.5"/><path d="M124,222 L124,318" stroke="#3a2a20" stroke-width="1.3"/><path d="M119.5,222 L128.5,222" stroke="#f7f2e8" stroke-width="3"/><path d="M119.5,222 L128.5,222" stroke="#3a2a20" stroke-width="1.3"/><path d="M121.5,246 L126.5,246" stroke="#f7f2e8" stroke-width="3"/><path d="M121.5,246 L126.5,246" stroke="#3a2a20" stroke-width="1.3"/><path d="M119.5,270 L128.5,270" stroke="#f7f2e8" stroke-width="3"/><path d="M119.5,270 L128.5,270" stroke="#3a2a20" stroke-width="1.3"/><path d="M121.5,294 L126.5,294" stroke="#f7f2e8" stroke-width="3"/><path d="M121.5,294 L126.5,294" stroke="#3a2a20" stroke-width="1.3"/><path d="M119.5,318 L128.5,318" stroke="#f7f2e8" stroke-width="3"/><path d="M119.5,318 L128.5,318" stroke="#3a2a20" stroke-width="1.3"/><circle cx="262" cy="318" r="2.4" fill="#3a2a20"/>
<rect width="600" height="600" fill="url(#fc-vig)" pointer-events="none"/>
</svg>
