<svg xmlns="http://www.w3.org/2000/svg" id="thd06" viewBox="0 0 720 662" role="img" font-family="system-ui, -apple-system, 'Segoe UI', Roboto, sans-serif">
<title>Two patients, one walking into a clinic and one on a resus trolley, holding the same laboratory slip</title><desc>Left, a thin man walking into a clinic: thyrotoxicosis. Right, a man of the same build on a resus trolley with a monitor behind: thyroid storm. Each holds the same slip: TSH low, free T4 high, free T3 high. Same numbers.</desc>
<rect width="720" height="662" fill="#fdf8ee"/>
<g id="thd06-clinic"><rect x="36" y="26" width="322" height="306" rx="16" fill="#241c15"/><rect x="30" y="20" width="322" height="306" rx="16" fill="#faf0da" stroke="#241c15" stroke-width="3"/><g transform="translate(188.0 310.0)" ><rect x="52" y="-262" width="104" height="262" fill="#f3e5c8" stroke="#241c15" stroke-width="4"/><path d="M60 0 V-254 H148 V0" fill="#fdf8ee" stroke="#241c15" stroke-width="3.5"/><circle cx="72" cy="-120" r="6" fill="#e0a521" stroke="#241c15" stroke-width="3"/><rect x="76" y="-226" width="56" height="50" rx="4" fill="#e9f1ee" stroke="#241c15" stroke-width="3"/><path d="M-150 0 H160" stroke="#241c15" stroke-width="4" stroke-linecap="round"/><path d="M-52 -170 L-70 -128 L-62 -100" fill="none" stroke="#241c15" stroke-width="18" stroke-linecap="round" stroke-linejoin="round"/><path d="M-52 -170 L-70 -128 L-62 -100" fill="none" stroke="#e9c3a4" stroke-width="11" stroke-linecap="round" stroke-linejoin="round"/><path d="M-46 -98 L-70 -50 L-84 -6" fill="none" stroke="#241c15" stroke-width="22" stroke-linecap="round" stroke-linejoin="round"/><path d="M-46 -98 L-70 -50 L-84 -6" fill="none" stroke="#6c6257" stroke-width="15" stroke-linecap="round" stroke-linejoin="round"/><path d="M-40 -98 L-20 -50 L-14 -6" fill="none" stroke="#241c15" stroke-width="22" stroke-linecap="round" stroke-linejoin="round"/><path d="M-40 -98 L-20 -50 L-14 -6" fill="none" stroke="#6c6257" stroke-width="15" stroke-linecap="round" stroke-linejoin="round"/><path d="M-90 -2 h18 M-18 -2 h20" stroke="#241c15" stroke-width="9" stroke-linecap="round"/><path d="M-62 -178 C-64 -150 -60 -116 -56 -92 L-28 -92 C-26 -120 -26 -150 -30 -178 Z" fill="#b9c6dc" stroke="#241c15" stroke-width="4" stroke-linejoin="round"/><path d="M-38 -170 L-18 -132 L8 -140" fill="none" stroke="#241c15" stroke-width="18" stroke-linecap="round" stroke-linejoin="round"/><path d="M-38 -170 L-18 -132 L8 -140" fill="none" stroke="#e9c3a4" stroke-width="11" stroke-linecap="round" stroke-linejoin="round"/><g transform="translate(20.0 -148.0) rotate(8)" ><rect x="-15" y="-20" width="30" height="40" rx="2" fill="#fdf8ee" stroke="#241c15" stroke-width="3"/><path d="M-8 -9 H8 M-8 0 H8 M-8 9 H8" stroke="#241c15" stroke-width="2.5" stroke-linecap="round"/></g><rect x="-52" y="-190" width="14" height="16" fill="#e9c3a4" stroke="#241c15" stroke-width="3.5"/><circle cx="-44" cy="-208" r="23" fill="#e9c3a4" stroke="#241c15" stroke-width="4"/><path d="M-66 -212 C-66 -236 -30 -240 -22 -218 C-34 -226 -52 -226 -66 -212 Z" fill="#5b4a3a" stroke="#241c15" stroke-width="3.5" stroke-linejoin="round"/><circle cx="-32" cy="-208" r="2.6" fill="#241c15"/></g></g><g id="thd06-resus"><rect x="374" y="26" width="322" height="306" rx="16" fill="#241c15"/><rect x="368" y="20" width="322" height="306" rx="16" fill="#faf0da" stroke="#241c15" stroke-width="3"/><g transform="translate(526.0 310.0)" ><path d="M-150 0 H160" stroke="#241c15" stroke-width="4" stroke-linecap="round"/><path d="M96 -92 V-196" stroke="#241c15" stroke-width="6" stroke-linecap="round"/><rect x="50" y="-262" width="96" height="68" rx="8" fill="#463a2c" stroke="#241c15" stroke-width="4"/><path d="M60 -226 h10 l5 -18 l7 30 l6 -14 h8 l5 -20 l7 34 l6 -12 h9 l4 -14 l6 20" fill="none" stroke="#e0a521" stroke-width="3.5" stroke-linejoin="round" stroke-linecap="round"/><path d="M-112 -72 L-100 -12 M112 -72 L100 -12 M-104 -34 H104" stroke="#241c15" stroke-width="5" stroke-linecap="round"/><circle cx="-100" cy="-10" r="10" fill="#fdf8ee" stroke="#241c15" stroke-width="4"/><circle cx="100" cy="-10" r="10" fill="#fdf8ee" stroke="#241c15" stroke-width="4"/><path d="M-62 -88 L-124 -180" fill="none" stroke="#241c15" stroke-width="20" stroke-linecap="round" stroke-linejoin="round"/><path d="M-62 -88 L-124 -180" fill="none" stroke="#f3e5c8" stroke-width="13" stroke-linecap="round" stroke-linejoin="round"/><rect x="-132" y="-92" width="264" height="20" rx="6" fill="#f3e5c8" stroke="#241c15" stroke-width="4"/><path d="M-122 -168 C-104 -180 -92 -176 -86 -166 L-44 -104 L-72 -92 Z" fill="#b9c6dc" stroke="#241c15" stroke-width="4" stroke-linejoin="round"/><path d="M-70 -124 C-20 -134 60 -120 128 -112 L128 -92 L-66 -92 Z" fill="#fdf8ee" stroke="#241c15" stroke-width="4" stroke-linejoin="round"/><path d="M-30 -122 q10 12 4 28 M40 -118 q8 10 2 24" fill="none" stroke="#d9c9a6" stroke-width="3.5" stroke-linecap="round"/><path d="M-98 -160 L-62 -132 L-30 -146" fill="none" stroke="#241c15" stroke-width="18" stroke-linecap="round" stroke-linejoin="round"/><path d="M-98 -160 L-62 -132 L-30 -146" fill="none" stroke="#e9c3a4" stroke-width="11" stroke-linecap="round" stroke-linejoin="round"/><g transform="translate(-16.0 -154.0) rotate(10)" ><rect x="-15" y="-20" width="30" height="40" rx="2" fill="#fdf8ee" stroke="#241c15" stroke-width="3"/><path d="M-8 -9 H8 M-8 0 H8 M-8 9 H8" stroke="#241c15" stroke-width="2.5" stroke-linecap="round"/></g><circle cx="-124" cy="-196" r="22" fill="#e9c3a4" stroke="#241c15" stroke-width="4"/><path d="M-146 -196 C-150 -222 -116 -228 -106 -210 C-118 -214 -134 -210 -146 -196 Z" fill="#5b4a3a" stroke="#241c15" stroke-width="3.5" stroke-linejoin="round"/><circle cx="-114" cy="-196" r="2.6" fill="#241c15"/><path d="M-146 -92 V-262 h22" fill="none" stroke="#241c15" stroke-width="5" stroke-linecap="round" stroke-linejoin="round"/><g transform="translate(-124.0 -236.0) scale(0.42)" ><path d="M0 -50 V-40" stroke="#241c15" stroke-width="4" stroke-linecap="round"/><circle cx="0" cy="-54" r="5" fill="none" stroke="#241c15" stroke-width="3.5"/><rect x="-24" y="-40" width="48" height="60" rx="11" fill="#e9f1ee" stroke="#241c15" stroke-width="4"/><path d="M-21 -12 q10 -6 21 0 t21 0 V10 a8 8 0 0 1 -8 8 H-13 a8 8 0 0 1 -8 -8 Z" fill="#b9c6dc"/><rect x="-24" y="-40" width="48" height="60" rx="11" fill="none" stroke="#241c15" stroke-width="4"/><path d="M0 20 V34" stroke="#241c15" stroke-width="4" stroke-linecap="round"/><rect x="-6" y="34" width="12" height="13" rx="3" fill="#fdf8ee" stroke="#241c15" stroke-width="3"/><path d="M0 47 V56" stroke="#241c15" stroke-width="3.5" stroke-linecap="round"/></g></g></g><path d="M191 392 V372 H529 V392" fill="none" stroke="#241c15" stroke-width="5" stroke-linejoin="round" stroke-linecap="round"/><rect x="227.5" y="345.4" width="265.1" height="49.3" rx="24.6" fill="#e0a521" stroke="#241c15" stroke-width="3"/><text font-size="29" font-weight="800" fill="#241c15" text-anchor="middle" ><tspan x="360.0" y="380.1">Same numbers</tspan></text><g id="thd06-slips"><rect x="36" y="410" width="322" height="172" rx="6" fill="#241c15"/><rect x="30" y="404" width="322" height="172" rx="6" fill="#fdf8ee" stroke="#241c15" stroke-width="3"/><path d="M30 434 H352" stroke="#241c15" stroke-width="3"/><circle cx="50" cy="419" r="5" fill="#f3e5c8" stroke="#241c15" stroke-width="2"/><circle cx="78" cy="419" r="5" fill="#f3e5c8" stroke="#241c15" stroke-width="2"/><circle cx="106" cy="419" r="5" fill="#f3e5c8" stroke="#241c15" stroke-width="2"/><circle cx="134" cy="419" r="5" fill="#f3e5c8" stroke="#241c15" stroke-width="2"/><circle cx="162" cy="419" r="5" fill="#f3e5c8" stroke="#241c15" stroke-width="2"/><circle cx="190" cy="419" r="5" fill="#f3e5c8" stroke="#241c15" stroke-width="2"/><circle cx="218" cy="419" r="5" fill="#f3e5c8" stroke="#241c15" stroke-width="2"/><circle cx="246" cy="419" r="5" fill="#f3e5c8" stroke="#241c15" stroke-width="2"/><circle cx="274" cy="419" r="5" fill="#f3e5c8" stroke="#241c15" stroke-width="2"/><circle cx="302" cy="419" r="5" fill="#f3e5c8" stroke="#241c15" stroke-width="2"/><circle cx="330" cy="419" r="5" fill="#f3e5c8" stroke="#241c15" stroke-width="2"/><text font-size="29" font-weight="600" fill="#241c15" text-anchor="start" ><tspan x="54.0" y="476.0">TSH</tspan></text><text font-size="29" font-weight="800" fill="#a53f12" text-anchor="end" ><tspan x="328.0" y="476.0">low</tspan></text><path d="M50 489 H332" stroke="#d9c9a6" stroke-width="2.5"/><text font-size="29" font-weight="600" fill="#241c15" text-anchor="start" ><tspan x="54.0" y="516.0">Free T4</tspan></text><text font-size="29" font-weight="800" fill="#a53f12" text-anchor="end" ><tspan x="328.0" y="516.0">high</tspan></text><path d="M50 529 H332" stroke="#d9c9a6" stroke-width="2.5"/><text font-size="29" font-weight="600" fill="#241c15" text-anchor="start" ><tspan x="54.0" y="556.0">Free T3</tspan></text><text font-size="29" font-weight="800" fill="#a53f12" text-anchor="end" ><tspan x="328.0" y="556.0">high</tspan></text><rect x="374" y="410" width="322" height="172" rx="6" fill="#241c15"/><rect x="368" y="404" width="322" height="172" rx="6" fill="#fdf8ee" stroke="#241c15" stroke-width="3"/><path d="M368 434 H690" stroke="#241c15" stroke-width="3"/><circle cx="388" cy="419" r="5" fill="#f3e5c8" stroke="#241c15" stroke-width="2"/><circle cx="416" cy="419" r="5" fill="#f3e5c8" stroke="#241c15" stroke-width="2"/><circle cx="444" cy="419" r="5" fill="#f3e5c8" stroke="#241c15" stroke-width="2"/><circle cx="472" cy="419" r="5" fill="#f3e5c8" stroke="#241c15" stroke-width="2"/><circle cx="500" cy="419" r="5" fill="#f3e5c8" stroke="#241c15" stroke-width="2"/><circle cx="528" cy="419" r="5" fill="#f3e5c8" stroke="#241c15" stroke-width="2"/><circle cx="556" cy="419" r="5" fill="#f3e5c8" stroke="#241c15" stroke-width="2"/><circle cx="584" cy="419" r="5" fill="#f3e5c8" stroke="#241c15" stroke-width="2"/><circle cx="612" cy="419" r="5" fill="#f3e5c8" stroke="#241c15" stroke-width="2"/><circle cx="640" cy="419" r="5" fill="#f3e5c8" stroke="#241c15" stroke-width="2"/><circle cx="668" cy="419" r="5" fill="#f3e5c8" stroke="#241c15" stroke-width="2"/><text font-size="29" font-weight="600" fill="#241c15" text-anchor="start" ><tspan x="392.0" y="476.0">TSH</tspan></text><text font-size="29" font-weight="800" fill="#a53f12" text-anchor="end" ><tspan x="666.0" y="476.0">low</tspan></text><path d="M388 489 H670" stroke="#d9c9a6" stroke-width="2.5"/><text font-size="29" font-weight="600" fill="#241c15" text-anchor="start" ><tspan x="392.0" y="516.0">Free T4</tspan></text><text font-size="29" font-weight="800" fill="#a53f12" text-anchor="end" ><tspan x="666.0" y="516.0">high</tspan></text><path d="M388 529 H670" stroke="#d9c9a6" stroke-width="2.5"/><text font-size="29" font-weight="600" fill="#241c15" text-anchor="start" ><tspan x="392.0" y="556.0">Free T3</tspan></text><text font-size="29" font-weight="800" fill="#a53f12" text-anchor="end" ><tspan x="666.0" y="556.0">high</tspan></text></g><text font-size="31" font-weight="800" fill="#241c15" text-anchor="middle" ><tspan x="191.0" y="632.0">Thyrotoxicosis</tspan></text><text font-size="31" font-weight="800" fill="#a53f12" text-anchor="middle" ><tspan x="529.0" y="632.0">Thyroid storm</tspan></text>
</svg>
